<?xml version="1.0" standalone="no"?>
<!DOCTYPE svg PUBLIC "-//W3C//DTD SVG 20010904//EN"
 "http://www.w3.org/TR/2001/REC-SVG-20010904/DTD/svg10.dtd">
<svg version="1.0" xmlns="http://www.w3.org/2000/svg"
 width="137.000000pt" height="120.000000pt" viewBox="0 0 137.000000 120.000000"
 preserveAspectRatio="xMidYMid meet">

<g transform="translate(0.000000,120.000000) scale(0.100000,-0.100000)"
fill="#000000" stroke="none">
<path d="M488 1041 c-31 -5 -71 -17 -89 -27 -37 -22 -91 -113 -115 -192 l-16
-53 -34 31 c-54 47 -104 37 -104 -21 0 -52 8 -59 66 -59 l54 0 -35 -51 c-43
-62 -49 -97 -42 -216 7 -94 34 -183 56 -183 6 0 11 -17 11 -37 0 -53 10 -63
66 -69 59 -7 84 10 84 57 l0 29 133 -7 c114 -5 137 -3 165 11 62 32 77 119 35
200 -18 35 -94 128 -100 122 -2 -2 15 -30 37 -62 44 -64 64 -134 38 -134 -30
0 -84 23 -111 49 -91 83 -102 257 -24 377 25 39 38 39 48 0 12 -45 55 -92 113
-126 30 -17 66 -44 80 -61 48 -57 52 -134 9 -181 -12 -14 -18 -37 -19 -73 0
-35 -8 -65 -23 -90 l-22 -38 115 6 116 7 0 -29 c0 -47 25 -64 84 -57 56 6 66
16 66 69 0 20 5 37 11 37 20 0 49 88 55 172 9 116 0 168 -42 228 l-34 50 55 0
c49 0 55 2 61 24 21 84 -49 116 -110 50 l-24 -26 -16 53 c-9 30 -31 81 -49
114 -26 48 -42 65 -81 84 -44 22 -61 24 -229 27 -100 1 -207 -1 -239 -5z"/>
</g>
</svg>
